<svg xmlns="http://www.w3.org/2000/svg" xmlns:xlink="http://www.w3.org/1999/xlink" width="500" zoomAndPan="magnify" viewBox="0 0 375 374.999991" height="500" preserveAspectRatio="xMidYMid meet" version="1.0"><defs><g/><clipPath id="d139f5b99e"><path d="M 79.863281 166.378906 L 303.25 166.378906 L 303.25 208.371094 L 79.863281 208.371094 Z M 79.863281 166.378906 " clip-rule="nonzero"/></clipPath><clipPath id="5f48fd0543"><path d="M 0.863281 0.378906 L 224.25 0.378906 L 224.25 42.371094 L 0.863281 42.371094 Z M 0.863281 0.378906 " clip-rule="nonzero"/></clipPath><clipPath id="70a4158532"><rect x="0" width="225" y="0" height="43"/></clipPath><clipPath id="e212c12217"><rect x="0" width="227" y="0" height="10"/></clipPath></defs><g fill="#167648" fill-opacity="1"><g transform="translate(96.605012, 247.733516)"><g><path d="M 3.578125 -135.15625 L 3.578125 -139.125 L 35.96875 -139.125 L 103.34375 -6.75 L 103.34375 -134.953125 L 93.21875 -135.15625 L 93.21875 -139.125 L 117.65625 -139.125 L 117.65625 -135.15625 L 107.328125 -134.953125 L 107.328125 -4.375 L 117.65625 -3.96875 L 117.65625 0 L 85.265625 0 L 17.6875 -132.375 L 17.6875 -4.578125 L 28.03125 -3.96875 L 28.03125 0 L 3.578125 0 L 3.578125 -3.96875 L 13.71875 -4.375 L 13.71875 -134.953125 Z M 3.578125 -135.15625 "/></g></g></g><g fill="#c80000" fill-opacity="1"><g transform="translate(179.023411, 247.478305)"><g><path d="M 7.546875 -110.3125 L 3.578125 -110.3125 L 3.578125 -139.125 L 97.1875 -139.125 L 97.1875 -110.3125 L 93.21875 -110.3125 L 82.6875 -135.15625 L 60.015625 -135.15625 L 60.015625 -4.96875 L 70.359375 -3.96875 L 70.359375 0 L 30.609375 0 L 30.609375 -3.96875 L 40.75 -4.96875 L 40.75 -135.15625 L 18.09375 -135.15625 Z M 7.546875 -110.3125 "/></g></g></g><g clip-path="url(#d139f5b99e)"><g transform="matrix(1, 0, 0, 1, 79, 166)"><g clip-path="url(#70a4158532)"><g clip-path="url(#5f48fd0543)"><path fill="#fffafa" d="M 0.863281 0.378906 L 224.269531 0.378906 L 224.269531 42.371094 L 0.863281 42.371094 Z M 0.863281 0.378906 " fill-opacity="1" fill-rule="nonzero"/></g></g></g></g><g fill="#167648" fill-opacity="1"><g transform="translate(101.494095, 190.840036)"><g><path d="M 18.34375 0 L 13.46875 0 L 5.59375 -13.703125 L 5.46875 -13.703125 C 5.632812 -11.285156 5.71875 -9.5625 5.71875 -8.53125 L 5.71875 0 L 2.28125 0 L 2.28125 -18.109375 L 7.125 -18.109375 L 14.984375 -4.546875 L 15.078125 -4.546875 C 14.953125 -6.898438 14.890625 -8.566406 14.890625 -9.546875 L 14.890625 -18.109375 L 18.34375 -18.109375 Z M 18.34375 0 "/></g></g></g><g fill="#167648" fill-opacity="1"><g transform="translate(124.252925, 190.840036)"><g><path d="M 17.125 0 L 13.296875 0 L 13.296875 -7.8125 L 6.125 -7.8125 L 6.125 0 L 2.28125 0 L 2.28125 -18.109375 L 6.125 -18.109375 L 6.125 -11.015625 L 13.296875 -11.015625 L 13.296875 -18.109375 L 17.125 -18.109375 Z M 17.125 0 "/></g></g></g><g fill="#167648" fill-opacity="1"><g transform="translate(145.797708, 190.840036)"><g><path d="M 13.375 0 L 12.0625 -4.3125 L 5.453125 -4.3125 L 4.140625 0 L 0 0 L 6.390625 -18.1875 L 11.09375 -18.1875 L 17.5 0 Z M 11.140625 -7.53125 C 9.921875 -11.4375 9.234375 -13.644531 9.078125 -14.15625 C 8.929688 -14.675781 8.828125 -15.082031 8.765625 -15.375 C 8.484375 -14.320312 7.703125 -11.707031 6.421875 -7.53125 Z M 11.625 -19.5625 C 10.320312 -20.332031 9.351562 -21.0625 8.71875 -21.75 C 8.070312 -21.070312 7.125 -20.34375 5.875 -19.5625 L 3.359375 -19.5625 L 3.359375 -19.890625 C 4.921875 -21.453125 5.976562 -22.695312 6.53125 -23.625 L 10.96875 -23.625 C 11.21875 -23.195312 11.65625 -22.613281 12.28125 -21.875 C 12.914062 -21.132812 13.535156 -20.472656 14.140625 -19.890625 L 14.140625 -19.5625 Z M 11.625 -19.5625 "/></g></g></g><g fill="#167648" fill-opacity="1"><g transform="translate(163.30228, 190.840036)"><g><path d="M -10 3.484375 C -10 2.242188 -9.3125 1.625 -7.9375 1.625 C -6.570312 1.625 -5.890625 2.242188 -5.890625 3.484375 C -5.890625 4.066406 -6.0625 4.519531 -6.40625 4.84375 C -6.75 5.164062 -7.257812 5.328125 -7.9375 5.328125 C -9.3125 5.328125 -10 4.710938 -10 3.484375 Z M -10 3.484375 "/></g></g></g><g fill="#167648" fill-opacity="1"><g transform="translate(165.434704, 190.840036)"><g><path d="M 9.265625 0 L 5.421875 0 L 5.421875 -14.921875 L 0.515625 -14.921875 L 0.515625 -18.109375 L 14.1875 -18.109375 L 14.1875 -14.921875 L 9.265625 -14.921875 Z M 9.265625 0 "/></g></g></g><g fill="#c80000" fill-opacity="1"><g transform="translate(184.853488, 190.840036)"><g><path d="M 9.265625 0 L 5.421875 0 L 5.421875 -14.921875 L 0.515625 -14.921875 L 0.515625 -18.109375 L 14.1875 -18.109375 L 14.1875 -14.921875 L 9.265625 -14.921875 Z M 9.265625 0 "/></g></g></g><g fill="#c80000" fill-opacity="1"><g transform="translate(201.678351, 190.840036)"><g><path d="M 17.03125 -18.109375 L 17.03125 -6.390625 C 17.03125 -5.054688 16.726562 -3.882812 16.125 -2.875 C 15.53125 -1.863281 14.664062 -1.085938 13.53125 -0.546875 C 12.394531 -0.015625 11.054688 0.25 9.515625 0.25 C 7.179688 0.25 5.367188 -0.34375 4.078125 -1.53125 C 2.796875 -2.726562 2.15625 -4.363281 2.15625 -6.4375 L 2.15625 -18.109375 L 5.984375 -18.109375 L 5.984375 -7.03125 C 5.984375 -5.632812 6.265625 -4.609375 6.828125 -3.953125 C 7.390625 -3.296875 8.316406 -2.96875 9.609375 -2.96875 C 10.867188 -2.96875 11.78125 -3.296875 12.34375 -3.953125 C 12.914062 -4.609375 13.203125 -5.640625 13.203125 -7.046875 L 13.203125 -18.109375 Z M 17.03125 -18.109375 "/></g></g></g><g fill="#c80000" fill-opacity="1"><g transform="translate(222.987752, 190.840036)"><g><path d="M 7.921875 -10.65625 L 11.703125 -18.109375 L 15.828125 -18.109375 L 9.828125 -7.046875 L 9.828125 0 L 6.015625 0 L 6.015625 -6.921875 L 0 -18.109375 L 4.15625 -18.109375 Z M 7.921875 -10.65625 "/></g></g></g><g fill="#c80000" fill-opacity="1"><g transform="translate(240.952331, 190.840036)"><g><path d="M 12.71875 0 L 2.28125 0 L 2.28125 -18.109375 L 12.71875 -18.109375 L 12.71875 -14.96875 L 6.125 -14.96875 L 6.125 -10.984375 L 12.25 -10.984375 L 12.25 -7.84375 L 6.125 -7.84375 L 6.125 -3.171875 L 12.71875 -3.171875 Z M 2.96875 -19.890625 C 3.894531 -20.972656 4.785156 -22.132812 5.640625 -23.375 L 9.546875 -23.375 C 9.953125 -22.769531 10.414062 -22.128906 10.9375 -21.453125 C 11.457031 -20.773438 11.882812 -20.253906 12.21875 -19.890625 L 12.21875 -19.5625 L 10.203125 -19.5625 C 9.398438 -20.101562 8.53125 -20.789062 7.59375 -21.625 C 6.71875 -20.832031 5.847656 -20.144531 4.984375 -19.5625 L 2.96875 -19.5625 Z M 4.0625 -21.984375 L 2.1875 -21.984375 C 0.832031 -22.960938 -0.101562 -23.8125 -0.625 -24.53125 L -0.625 -24.796875 L 2.359375 -24.796875 C 2.804688 -23.867188 3.375 -23.035156 4.0625 -22.296875 Z M 4.0625 -21.984375 "/></g></g></g><g fill="#c80000" fill-opacity="1"><g transform="translate(257.294058, 190.840036)"><g><path d="M 18.34375 0 L 13.46875 0 L 5.59375 -13.703125 L 5.46875 -13.703125 C 5.632812 -11.285156 5.71875 -9.5625 5.71875 -8.53125 L 5.71875 0 L 2.28125 0 L 2.28125 -18.109375 L 7.125 -18.109375 L 14.984375 -4.546875 L 15.078125 -4.546875 C 14.953125 -6.898438 14.890625 -8.566406 14.890625 -9.546875 L 14.890625 -18.109375 L 18.34375 -18.109375 Z M 18.34375 0 "/></g></g></g><g transform="matrix(1, 0, 0, 1, 77, 196)"><g clip-path="url(#e212c12217)"><g fill="#000000" fill-opacity="1"><g transform="translate(1.372155, 7.084739)"><g><path d="M 4.203125 -5.53125 L 4.09375 -4.6875 L 2.640625 -4.6875 L 2.640625 0 L 1.578125 0 L 1.578125 -4.6875 L 0.09375 -4.6875 L 0.09375 -5.53125 Z M 4.203125 -5.53125 "/></g></g></g><g fill="#000000" fill-opacity="1"><g transform="translate(6.284172, 7.084739)"><g><path d="M 3.671875 0 L 3.671875 -2.46875 L 1.703125 -2.46875 L 1.703125 0 L 0.640625 0 L 0.640625 -5.53125 L 1.703125 -5.53125 L 1.703125 -3.3125 L 3.671875 -3.3125 L 3.671875 -5.53125 L 4.734375 -5.53125 L 4.734375 0 Z M 3.671875 0 "/></g></g></g><g fill="#000000" fill-opacity="1"><g transform="translate(12.332193, 7.084739)"><g><path d="M 3.859375 -5.53125 L 3.75 -4.75 L 1.703125 -4.75 L 1.703125 -3.203125 L 3.484375 -3.203125 L 3.484375 -2.421875 L 1.703125 -2.421875 L 1.703125 -0.796875 L 3.890625 -0.796875 L 3.890625 0 L 0.640625 0 L 0.640625 -5.53125 Z M 3.859375 -5.53125 "/></g></g></g><g fill="#000000" fill-opacity="1"><g transform="translate(17.24421, 7.084739)"><g/></g></g><g fill="#000000" fill-opacity="1"><g transform="translate(19.916211, 7.084739)"><g><path d="M 2.234375 -5.640625 C 2.628906 -5.640625 2.96875 -5.582031 3.25 -5.46875 C 3.539062 -5.363281 3.8125 -5.195312 4.0625 -4.96875 L 3.546875 -4.375 C 3.347656 -4.53125 3.144531 -4.644531 2.9375 -4.71875 C 2.738281 -4.800781 2.523438 -4.84375 2.296875 -4.84375 C 2.046875 -4.84375 1.84375 -4.785156 1.6875 -4.671875 C 1.53125 -4.554688 1.453125 -4.394531 1.453125 -4.1875 C 1.453125 -4.039062 1.476562 -3.921875 1.53125 -3.828125 C 1.59375 -3.742188 1.703125 -3.660156 1.859375 -3.578125 C 2.023438 -3.503906 2.265625 -3.414062 2.578125 -3.3125 C 3.128906 -3.144531 3.539062 -2.929688 3.8125 -2.671875 C 4.082031 -2.421875 4.21875 -2.054688 4.21875 -1.578125 C 4.21875 -1.242188 4.132812 -0.945312 3.96875 -0.6875 C 3.800781 -0.4375 3.5625 -0.238281 3.25 -0.09375 C 2.9375 0.0507812 2.5625 0.125 2.125 0.125 C 1.707031 0.125 1.332031 0.0546875 1 -0.078125 C 0.664062 -0.210938 0.378906 -0.398438 0.140625 -0.640625 L 0.6875 -1.25 C 0.894531 -1.0625 1.113281 -0.921875 1.34375 -0.828125 C 1.570312 -0.742188 1.828125 -0.703125 2.109375 -0.703125 C 2.410156 -0.703125 2.65625 -0.769531 2.84375 -0.90625 C 3.03125 -1.050781 3.125 -1.253906 3.125 -1.515625 C 3.125 -1.679688 3.085938 -1.816406 3.015625 -1.921875 C 2.953125 -2.023438 2.84375 -2.113281 2.6875 -2.1875 C 2.539062 -2.269531 2.320312 -2.359375 2.03125 -2.453125 C 1.4375 -2.640625 1.007812 -2.859375 0.75 -3.109375 C 0.488281 -3.367188 0.359375 -3.707031 0.359375 -4.125 C 0.359375 -4.425781 0.4375 -4.691406 0.59375 -4.921875 C 0.757812 -5.148438 0.984375 -5.328125 1.265625 -5.453125 C 1.554688 -5.578125 1.878906 -5.640625 2.234375 -5.640625 Z M 2.234375 -5.640625 "/></g></g></g><g fill="#000000" fill-opacity="1"><g transform="translate(25.068228, 7.084739)"><g><path d="M 1.703125 -5.53125 L 1.703125 0 L 0.640625 0 L 0.640625 -5.53125 Z M 4.8125 -5.53125 L 2.890625 -3.03125 L 4.953125 0 L 3.703125 0 L 1.75 -2.953125 L 3.65625 -5.53125 Z M 4.8125 -5.53125 "/></g></g></g><g fill="#000000" fill-opacity="1"><g transform="translate(30.644245, 7.084739)"><g><path d="M 4.609375 -5.53125 L 2.828125 -2.09375 L 2.828125 0 L 1.765625 0 L 1.765625 -2.09375 L -0.015625 -5.53125 L 1.15625 -5.53125 L 2.3125 -2.953125 L 3.484375 -5.53125 Z M 4.609375 -5.53125 "/></g></g></g><g fill="#000000" fill-opacity="1"><g transform="translate(35.908261, 7.084739)"><g><path d="M 0.5625 -3.359375 L 0.421875 -5.53125 L 1.40625 -5.53125 L 1.265625 -3.359375 Z M 0.5625 -3.359375 "/></g></g></g><g fill="#000000" fill-opacity="1"><g transform="translate(38.420269, 7.084739)"><g><path d="M 2.234375 -5.640625 C 2.628906 -5.640625 2.96875 -5.582031 3.25 -5.46875 C 3.539062 -5.363281 3.8125 -5.195312 4.0625 -4.96875 L 3.546875 -4.375 C 3.347656 -4.53125 3.144531 -4.644531 2.9375 -4.71875 C 2.738281 -4.800781 2.523438 -4.84375 2.296875 -4.84375 C 2.046875 -4.84375 1.84375 -4.785156 1.6875 -4.671875 C 1.53125 -4.554688 1.453125 -4.394531 1.453125 -4.1875 C 1.453125 -4.039062 1.476562 -3.921875 1.53125 -3.828125 C 1.59375 -3.742188 1.703125 -3.660156 1.859375 -3.578125 C 2.023438 -3.503906 2.265625 -3.414062 2.578125 -3.3125 C 3.128906 -3.144531 3.539062 -2.929688 3.8125 -2.671875 C 4.082031 -2.421875 4.21875 -2.054688 4.21875 -1.578125 C 4.21875 -1.242188 4.132812 -0.945312 3.96875 -0.6875 C 3.800781 -0.4375 3.5625 -0.238281 3.25 -0.09375 C 2.9375 0.0507812 2.5625 0.125 2.125 0.125 C 1.707031 0.125 1.332031 0.0546875 1 -0.078125 C 0.664062 -0.210938 0.378906 -0.398438 0.140625 -0.640625 L 0.6875 -1.25 C 0.894531 -1.0625 1.113281 -0.921875 1.34375 -0.828125 C 1.570312 -0.742188 1.828125 -0.703125 2.109375 -0.703125 C 2.410156 -0.703125 2.65625 -0.769531 2.84375 -0.90625 C 3.03125 -1.050781 3.125 -1.253906 3.125 -1.515625 C 3.125 -1.679688 3.085938 -1.816406 3.015625 -1.921875 C 2.953125 -2.023438 2.84375 -2.113281 2.6875 -2.1875 C 2.539062 -2.269531 2.320312 -2.359375 2.03125 -2.453125 C 1.4375 -2.640625 1.007812 -2.859375 0.75 -3.109375 C 0.488281 -3.367188 0.359375 -3.707031 0.359375 -4.125 C 0.359375 -4.425781 0.4375 -4.691406 0.59375 -4.921875 C 0.757812 -5.148438 0.984375 -5.328125 1.265625 -5.453125 C 1.554688 -5.578125 1.878906 -5.640625 2.234375 -5.640625 Z M 2.234375 -5.640625 "/></g></g></g><g fill="#000000" fill-opacity="1"><g transform="translate(43.572286, 7.084739)"><g/></g></g><g fill="#000000" fill-opacity="1"><g transform="translate(46.244287, 7.084739)"><g><path d="M 4.203125 -5.53125 L 4.09375 -4.6875 L 2.640625 -4.6875 L 2.640625 0 L 1.578125 0 L 1.578125 -4.6875 L 0.09375 -4.6875 L 0.09375 -5.53125 Z M 4.203125 -5.53125 "/></g></g></g><g fill="#000000" fill-opacity="1"><g transform="translate(51.156304, 7.084739)"><g><path d="M 3.671875 0 L 3.671875 -2.46875 L 1.703125 -2.46875 L 1.703125 0 L 0.640625 0 L 0.640625 -5.53125 L 1.703125 -5.53125 L 1.703125 -3.3125 L 3.671875 -3.3125 L 3.671875 -5.53125 L 4.734375 -5.53125 L 4.734375 0 Z M 3.671875 0 "/></g></g></g><g fill="#000000" fill-opacity="1"><g transform="translate(57.204325, 7.084739)"><g><path d="M 3.859375 -5.53125 L 3.75 -4.75 L 1.703125 -4.75 L 1.703125 -3.203125 L 3.484375 -3.203125 L 3.484375 -2.421875 L 1.703125 -2.421875 L 1.703125 -0.796875 L 3.890625 -0.796875 L 3.890625 0 L 0.640625 0 L 0.640625 -5.53125 Z M 3.859375 -5.53125 "/></g></g></g><g fill="#000000" fill-opacity="1"><g transform="translate(62.116342, 7.084739)"><g/></g></g><g fill="#000000" fill-opacity="1"><g transform="translate(64.788343, 7.084739)"><g><path d="M 1.703125 -5.53125 L 1.703125 -0.859375 L 3.921875 -0.859375 L 3.796875 0 L 0.640625 0 L 0.640625 -5.53125 Z M 1.703125 -5.53125 "/></g></g></g><g fill="#000000" fill-opacity="1"><g transform="translate(69.508354, 7.084739)"><g><path d="M 1.703125 -5.53125 L 1.703125 0 L 0.640625 0 L 0.640625 -5.53125 Z M 1.703125 -5.53125 "/></g></g></g><g fill="#000000" fill-opacity="1"><g transform="translate(72.532364, 7.084739)"><g><path d="M 5.890625 0 L 4.859375 0 L 4.71875 -2.3125 C 4.664062 -3.132812 4.640625 -3.789062 4.640625 -4.28125 L 4.640625 -4.5625 L 3.625 -0.59375 L 2.625 -0.59375 L 1.5625 -4.578125 C 1.570312 -4.222656 1.578125 -3.957031 1.578125 -3.78125 C 1.578125 -3.289062 1.5625 -2.789062 1.53125 -2.28125 L 1.390625 0 L 0.375 0 L 0.8125 -5.53125 L 2.171875 -5.53125 L 3.15625 -1.65625 L 4.078125 -5.53125 L 5.453125 -5.53125 Z M 5.890625 0 "/></g></g></g><g fill="#000000" fill-opacity="1"><g transform="translate(79.460388, 7.084739)"><g><path d="M 1.703125 -5.53125 L 1.703125 0 L 0.640625 0 L 0.640625 -5.53125 Z M 1.703125 -5.53125 "/></g></g></g><g fill="#000000" fill-opacity="1"><g transform="translate(82.484399, 7.084739)"><g><path d="M 4.203125 -5.53125 L 4.09375 -4.6875 L 2.640625 -4.6875 L 2.640625 0 L 1.578125 0 L 1.578125 -4.6875 L 0.09375 -4.6875 L 0.09375 -5.53125 Z M 4.203125 -5.53125 "/></g></g></g><g fill="#000000" fill-opacity="1"><g transform="translate(87.396416, 7.084739)"><g><path d="M 0.953125 -1.171875 C 1.128906 -1.171875 1.28125 -1.109375 1.40625 -0.984375 C 1.539062 -0.859375 1.609375 -0.707031 1.609375 -0.53125 C 1.609375 -0.351562 1.539062 -0.195312 1.40625 -0.0625 C 1.28125 0.0585938 1.128906 0.125 0.953125 0.125 C 0.773438 0.125 0.625 0.0585938 0.5 -0.0625 C 0.375 -0.195312 0.3125 -0.351562 0.3125 -0.53125 C 0.3125 -0.707031 0.375 -0.859375 0.5 -0.984375 C 0.625 -1.109375 0.773438 -1.171875 0.953125 -1.171875 Z M 0.953125 -4.015625 C 1.128906 -4.015625 1.28125 -3.953125 1.40625 -3.828125 C 1.539062 -3.703125 1.609375 -3.550781 1.609375 -3.375 C 1.609375 -3.195312 1.539062 -3.039062 1.40625 -2.90625 C 1.28125 -2.78125 1.128906 -2.71875 0.953125 -2.71875 C 0.773438 -2.71875 0.625 -2.78125 0.5 -2.90625 C 0.375 -3.039062 0.3125 -3.195312 0.3125 -3.375 C 0.3125 -3.550781 0.375 -3.703125 0.5 -3.828125 C 0.625 -3.953125 0.773438 -4.015625 0.953125 -4.015625 Z M 0.953125 -4.015625 "/></g></g></g><g fill="#000000" fill-opacity="1"><g transform="translate(89.98842, 7.084739)"><g/></g></g><g fill="#000000" fill-opacity="1"><g transform="translate(92.660422, 7.084739)"><g><path d="M 2.375 -2.21875 L 1.703125 -2.21875 L 1.703125 0 L 0.640625 0 L 0.640625 -5.53125 L 2.296875 -5.53125 C 3.753906 -5.53125 4.484375 -4.988281 4.484375 -3.90625 C 4.484375 -3.539062 4.390625 -3.234375 4.203125 -2.984375 C 4.023438 -2.742188 3.75 -2.550781 3.375 -2.40625 L 4.8125 0 L 3.59375 0 Z M 1.703125 -2.96875 L 2.359375 -2.96875 C 2.691406 -2.96875 2.945312 -3.039062 3.125 -3.1875 C 3.300781 -3.34375 3.390625 -3.582031 3.390625 -3.90625 C 3.390625 -4.207031 3.296875 -4.425781 3.109375 -4.5625 C 2.929688 -4.695312 2.648438 -4.765625 2.265625 -4.765625 L 1.703125 -4.765625 Z M 1.703125 -2.96875 "/></g></g></g><g fill="#000000" fill-opacity="1"><g transform="translate(98.220437, 7.084739)"><g><path d="M 3.859375 -5.53125 L 3.75 -4.75 L 1.703125 -4.75 L 1.703125 -3.203125 L 3.484375 -3.203125 L 3.484375 -2.421875 L 1.703125 -2.421875 L 1.703125 -0.796875 L 3.890625 -0.796875 L 3.890625 0 L 0.640625 0 L 0.640625 -5.53125 Z M 3.859375 -5.53125 "/></g></g></g><g fill="#000000" fill-opacity="1"><g transform="translate(103.132454, 7.084739)"><g><path d="M 3.578125 0 L 3.234375 -1.28125 L 1.40625 -1.28125 L 1.0625 0 L -0.046875 0 L 1.6875 -5.53125 L 2.984375 -5.53125 L 4.703125 0 Z M 1.609375 -2.078125 L 3.015625 -2.078125 L 2.3125 -4.71875 Z M 1.609375 -2.078125 "/></g></g></g><g fill="#000000" fill-opacity="1"><g transform="translate(108.468471, 7.084739)"><g><path d="M 2.765625 -5.640625 C 3.097656 -5.640625 3.390625 -5.59375 3.640625 -5.5 C 3.890625 -5.40625 4.132812 -5.257812 4.375 -5.0625 L 3.84375 -4.4375 C 3.519531 -4.695312 3.175781 -4.828125 2.8125 -4.828125 C 2.40625 -4.828125 2.078125 -4.660156 1.828125 -4.328125 C 1.578125 -4.003906 1.453125 -3.488281 1.453125 -2.78125 C 1.453125 -2.082031 1.570312 -1.566406 1.8125 -1.234375 C 2.0625 -0.898438 2.394531 -0.734375 2.8125 -0.734375 C 3.03125 -0.734375 3.222656 -0.769531 3.390625 -0.84375 C 3.566406 -0.914062 3.75 -1.023438 3.9375 -1.171875 L 4.4375 -0.546875 C 4.25 -0.359375 4.007812 -0.195312 3.71875 -0.0625 C 3.4375 0.0585938 3.125 0.125 2.78125 0.125 C 2.300781 0.125 1.875 0.0117188 1.5 -0.203125 C 1.132812 -0.429688 0.847656 -0.765625 0.640625 -1.203125 C 0.441406 -1.640625 0.34375 -2.164062 0.34375 -2.78125 C 0.34375 -3.382812 0.445312 -3.898438 0.65625 -4.328125 C 0.863281 -4.753906 1.148438 -5.078125 1.515625 -5.296875 C 1.890625 -5.523438 2.304688 -5.640625 2.765625 -5.640625 Z M 2.765625 -5.640625 "/></g></g></g><g fill="#000000" fill-opacity="1"><g transform="translate(113.684493, 7.084739)"><g><path d="M 3.671875 0 L 3.671875 -2.46875 L 1.703125 -2.46875 L 1.703125 0 L 0.640625 0 L 0.640625 -5.53125 L 1.703125 -5.53125 L 1.703125 -3.3125 L 3.671875 -3.3125 L 3.671875 -5.53125 L 4.734375 -5.53125 L 4.734375 0 Z M 3.671875 0 "/></g></g></g><g fill="#000000" fill-opacity="1"><g transform="translate(119.732514, 7.084739)"><g/></g></g><g fill="#000000" fill-opacity="1"><g transform="translate(122.404516, 7.084739)"><g><path d="M 0.640625 0 L 0.640625 -5.53125 L 3.78125 -5.53125 L 3.65625 -4.75 L 1.703125 -4.75 L 1.703125 -3.09375 L 3.40625 -3.09375 L 3.40625 -2.296875 L 1.703125 -2.296875 L 1.703125 0 Z M 0.640625 0 "/></g></g></g><g fill="#000000" fill-opacity="1"><g transform="translate(126.98853, 7.084739)"><g><path d="M 2.765625 -5.640625 C 3.265625 -5.640625 3.691406 -5.523438 4.046875 -5.296875 C 4.410156 -5.078125 4.691406 -4.753906 4.890625 -4.328125 C 5.085938 -3.898438 5.1875 -3.378906 5.1875 -2.765625 C 5.1875 -2.160156 5.085938 -1.640625 4.890625 -1.203125 C 4.691406 -0.773438 4.410156 -0.445312 4.046875 -0.21875 C 3.679688 0.0078125 3.253906 0.125 2.765625 0.125 C 2.273438 0.125 1.847656 0.0117188 1.484375 -0.203125 C 1.117188 -0.429688 0.835938 -0.757812 0.640625 -1.1875 C 0.441406 -1.625 0.34375 -2.148438 0.34375 -2.765625 C 0.34375 -3.359375 0.441406 -3.867188 0.640625 -4.296875 C 0.835938 -4.734375 1.117188 -5.066406 1.484375 -5.296875 C 1.847656 -5.523438 2.273438 -5.640625 2.765625 -5.640625 Z M 2.765625 -4.84375 C 2.335938 -4.84375 2.007812 -4.675781 1.78125 -4.34375 C 1.5625 -4.007812 1.453125 -3.484375 1.453125 -2.765625 C 1.453125 -1.378906 1.890625 -0.6875 2.765625 -0.6875 C 3.191406 -0.6875 3.515625 -0.851562 3.734375 -1.1875 C 3.960938 -1.519531 4.078125 -2.046875 4.078125 -2.765625 C 4.078125 -3.484375 3.960938 -4.007812 3.734375 -4.34375 C 3.515625 -4.675781 3.191406 -4.84375 2.765625 -4.84375 Z M 2.765625 -4.84375 "/></g></g></g><g fill="#000000" fill-opacity="1"><g transform="translate(133.188549, 7.084739)"><g><path d="M 2.375 -2.21875 L 1.703125 -2.21875 L 1.703125 0 L 0.640625 0 L 0.640625 -5.53125 L 2.296875 -5.53125 C 3.753906 -5.53125 4.484375 -4.988281 4.484375 -3.90625 C 4.484375 -3.539062 4.390625 -3.234375 4.203125 -2.984375 C 4.023438 -2.742188 3.75 -2.550781 3.375 -2.40625 L 4.8125 0 L 3.59375 0 Z M 1.703125 -2.96875 L 2.359375 -2.96875 C 2.691406 -2.96875 2.945312 -3.039062 3.125 -3.1875 C 3.300781 -3.34375 3.390625 -3.582031 3.390625 -3.90625 C 3.390625 -4.207031 3.296875 -4.425781 3.109375 -4.5625 C 2.929688 -4.695312 2.648438 -4.765625 2.265625 -4.765625 L 1.703125 -4.765625 Z M 1.703125 -2.96875 "/></g></g></g><g fill="#000000" fill-opacity="1"><g transform="translate(138.748564, 7.084739)"><g/></g></g><g fill="#000000" fill-opacity="1"><g transform="translate(141.420566, 7.084739)"><g><path d="M 4.203125 -5.53125 L 4.09375 -4.6875 L 2.640625 -4.6875 L 2.640625 0 L 1.578125 0 L 1.578125 -4.6875 L 0.09375 -4.6875 L 0.09375 -5.53125 Z M 4.203125 -5.53125 "/></g></g></g><g fill="#000000" fill-opacity="1"><g transform="translate(146.332583, 7.084739)"><g><path d="M 3.671875 0 L 3.671875 -2.46875 L 1.703125 -2.46875 L 1.703125 0 L 0.640625 0 L 0.640625 -5.53125 L 1.703125 -5.53125 L 1.703125 -3.3125 L 3.671875 -3.3125 L 3.671875 -5.53125 L 4.734375 -5.53125 L 4.734375 0 Z M 3.671875 0 "/></g></g></g><g fill="#000000" fill-opacity="1"><g transform="translate(152.380604, 7.084739)"><g><path d="M 3.859375 -5.53125 L 3.75 -4.75 L 1.703125 -4.75 L 1.703125 -3.203125 L 3.484375 -3.203125 L 3.484375 -2.421875 L 1.703125 -2.421875 L 1.703125 -0.796875 L 3.890625 -0.796875 L 3.890625 0 L 0.640625 0 L 0.640625 -5.53125 Z M 3.859375 -5.53125 "/></g></g></g><g fill="#000000" fill-opacity="1"><g transform="translate(157.292621, 7.084739)"><g/></g></g><g fill="#000000" fill-opacity="1"><g transform="translate(159.964622, 7.084739)"><g><path d="M 2.234375 -5.640625 C 2.628906 -5.640625 2.96875 -5.582031 3.25 -5.46875 C 3.539062 -5.363281 3.8125 -5.195312 4.0625 -4.96875 L 3.546875 -4.375 C 3.347656 -4.53125 3.144531 -4.644531 2.9375 -4.71875 C 2.738281 -4.800781 2.523438 -4.84375 2.296875 -4.84375 C 2.046875 -4.84375 1.84375 -4.785156 1.6875 -4.671875 C 1.53125 -4.554688 1.453125 -4.394531 1.453125 -4.1875 C 1.453125 -4.039062 1.476562 -3.921875 1.53125 -3.828125 C 1.59375 -3.742188 1.703125 -3.660156 1.859375 -3.578125 C 2.023438 -3.503906 2.265625 -3.414062 2.578125 -3.3125 C 3.128906 -3.144531 3.539062 -2.929688 3.8125 -2.671875 C 4.082031 -2.421875 4.21875 -2.054688 4.21875 -1.578125 C 4.21875 -1.242188 4.132812 -0.945312 3.96875 -0.6875 C 3.800781 -0.4375 3.5625 -0.238281 3.25 -0.09375 C 2.9375 0.0507812 2.5625 0.125 2.125 0.125 C 1.707031 0.125 1.332031 0.0546875 1 -0.078125 C 0.664062 -0.210938 0.378906 -0.398438 0.140625 -0.640625 L 0.6875 -1.25 C 0.894531 -1.0625 1.113281 -0.921875 1.34375 -0.828125 C 1.570312 -0.742188 1.828125 -0.703125 2.109375 -0.703125 C 2.410156 -0.703125 2.65625 -0.769531 2.84375 -0.90625 C 3.03125 -1.050781 3.125 -1.253906 3.125 -1.515625 C 3.125 -1.679688 3.085938 -1.816406 3.015625 -1.921875 C 2.953125 -2.023438 2.84375 -2.113281 2.6875 -2.1875 C 2.539062 -2.269531 2.320312 -2.359375 2.03125 -2.453125 C 1.4375 -2.640625 1.007812 -2.859375 0.75 -3.109375 C 0.488281 -3.367188 0.359375 -3.707031 0.359375 -4.125 C 0.359375 -4.425781 0.4375 -4.691406 0.59375 -4.921875 C 0.757812 -5.148438 0.984375 -5.328125 1.265625 -5.453125 C 1.554688 -5.578125 1.878906 -5.640625 2.234375 -5.640625 Z M 2.234375 -5.640625 "/></g></g></g><g fill="#000000" fill-opacity="1"><g transform="translate(165.116639, 7.084739)"><g><path d="M 4.203125 -5.53125 L 4.09375 -4.6875 L 2.640625 -4.6875 L 2.640625 0 L 1.578125 0 L 1.578125 -4.6875 L 0.09375 -4.6875 L 0.09375 -5.53125 Z M 4.203125 -5.53125 "/></g></g></g><g fill="#000000" fill-opacity="1"><g transform="translate(170.028656, 7.084739)"><g><path d="M 3.578125 0 L 3.234375 -1.28125 L 1.40625 -1.28125 L 1.0625 0 L -0.046875 0 L 1.6875 -5.53125 L 2.984375 -5.53125 L 4.703125 0 Z M 1.609375 -2.078125 L 3.015625 -2.078125 L 2.3125 -4.71875 Z M 1.609375 -2.078125 "/></g></g></g><g fill="#000000" fill-opacity="1"><g transform="translate(175.364683, 7.084739)"><g><path d="M 2.375 -2.21875 L 1.703125 -2.21875 L 1.703125 0 L 0.640625 0 L 0.640625 -5.53125 L 2.296875 -5.53125 C 3.753906 -5.53125 4.484375 -4.988281 4.484375 -3.90625 C 4.484375 -3.539062 4.390625 -3.234375 4.203125 -2.984375 C 4.023438 -2.742188 3.75 -2.550781 3.375 -2.40625 L 4.8125 0 L 3.59375 0 Z M 1.703125 -2.96875 L 2.359375 -2.96875 C 2.691406 -2.96875 2.945312 -3.039062 3.125 -3.1875 C 3.300781 -3.34375 3.390625 -3.582031 3.390625 -3.90625 C 3.390625 -4.207031 3.296875 -4.425781 3.109375 -4.5625 C 2.929688 -4.695312 2.648438 -4.765625 2.265625 -4.765625 L 1.703125 -4.765625 Z M 1.703125 -2.96875 "/></g></g></g><g fill="#000000" fill-opacity="1"><g transform="translate(180.924688, 7.084739)"><g><path d="M 2.234375 -5.640625 C 2.628906 -5.640625 2.96875 -5.582031 3.25 -5.46875 C 3.539062 -5.363281 3.8125 -5.195312 4.0625 -4.96875 L 3.546875 -4.375 C 3.347656 -4.53125 3.144531 -4.644531 2.9375 -4.71875 C 2.738281 -4.800781 2.523438 -4.84375 2.296875 -4.84375 C 2.046875 -4.84375 1.84375 -4.785156 1.6875 -4.671875 C 1.53125 -4.554688 1.453125 -4.394531 1.453125 -4.1875 C 1.453125 -4.039062 1.476562 -3.921875 1.53125 -3.828125 C 1.59375 -3.742188 1.703125 -3.660156 1.859375 -3.578125 C 2.023438 -3.503906 2.265625 -3.414062 2.578125 -3.3125 C 3.128906 -3.144531 3.539062 -2.929688 3.8125 -2.671875 C 4.082031 -2.421875 4.21875 -2.054688 4.21875 -1.578125 C 4.21875 -1.242188 4.132812 -0.945312 3.96875 -0.6875 C 3.800781 -0.4375 3.5625 -0.238281 3.25 -0.09375 C 2.9375 0.0507812 2.5625 0.125 2.125 0.125 C 1.707031 0.125 1.332031 0.0546875 1 -0.078125 C 0.664062 -0.210938 0.378906 -0.398438 0.140625 -0.640625 L 0.6875 -1.25 C 0.894531 -1.0625 1.113281 -0.921875 1.34375 -0.828125 C 1.570312 -0.742188 1.828125 -0.703125 2.109375 -0.703125 C 2.410156 -0.703125 2.65625 -0.769531 2.84375 -0.90625 C 3.03125 -1.050781 3.125 -1.253906 3.125 -1.515625 C 3.125 -1.679688 3.085938 -1.816406 3.015625 -1.921875 C 2.953125 -2.023438 2.84375 -2.113281 2.6875 -2.1875 C 2.539062 -2.269531 2.320312 -2.359375 2.03125 -2.453125 C 1.4375 -2.640625 1.007812 -2.859375 0.75 -3.109375 C 0.488281 -3.367188 0.359375 -3.707031 0.359375 -4.125 C 0.359375 -4.425781 0.4375 -4.691406 0.59375 -4.921875 C 0.757812 -5.148438 0.984375 -5.328125 1.265625 -5.453125 C 1.554688 -5.578125 1.878906 -5.640625 2.234375 -5.640625 Z M 2.234375 -5.640625 "/></g></g></g><g fill="#000000" fill-opacity="1"><g transform="translate(186.076695, 7.084739)"><g/></g></g><g fill="#000000" fill-opacity="1"><g transform="translate(188.748706, 7.084739)"><g><path d="M 6.5625 -5.53125 L 5.546875 0 L 4.171875 0 L 3.34375 -4.40625 L 2.46875 0 L 1.140625 0 L 0.140625 -5.53125 L 1.1875 -5.53125 L 1.890625 -0.84375 L 2.796875 -5.53125 L 3.90625 -5.53125 L 4.796875 -0.84375 L 5.5625 -5.53125 Z M 6.5625 -5.53125 "/></g></g></g><g fill="#000000" fill-opacity="1"><g transform="translate(196.116731, 7.084739)"><g><path d="M 1.703125 -5.53125 L 1.703125 0 L 0.640625 0 L 0.640625 -5.53125 Z M 1.703125 -5.53125 "/></g></g></g><g fill="#000000" fill-opacity="1"><g transform="translate(199.140752, 7.084739)"><g><path d="M 4.203125 -5.53125 L 4.09375 -4.6875 L 2.640625 -4.6875 L 2.640625 0 L 1.578125 0 L 1.578125 -4.6875 L 0.09375 -4.6875 L 0.09375 -5.53125 Z M 4.203125 -5.53125 "/></g></g></g><g fill="#000000" fill-opacity="1"><g transform="translate(204.052769, 7.084739)"><g><path d="M 3.671875 0 L 3.671875 -2.46875 L 1.703125 -2.46875 L 1.703125 0 L 0.640625 0 L 0.640625 -5.53125 L 1.703125 -5.53125 L 1.703125 -3.3125 L 3.671875 -3.3125 L 3.671875 -5.53125 L 4.734375 -5.53125 L 4.734375 0 Z M 3.671875 0 "/></g></g></g><g fill="#000000" fill-opacity="1"><g transform="translate(210.10077, 7.084739)"><g/></g></g><g fill="#000000" fill-opacity="1"><g transform="translate(212.772781, 7.084739)"><g><path d="M 4.6875 -1.8125 C 4.6875 -1.4375 4.601562 -1.101562 4.4375 -0.8125 C 4.28125 -0.519531 4.046875 -0.289062 3.734375 -0.125 C 3.421875 0.0390625 3.046875 0.125 2.609375 0.125 C 1.953125 0.125 1.445312 -0.046875 1.09375 -0.390625 C 0.738281 -0.742188 0.5625 -1.21875 0.5625 -1.8125 L 0.5625 -5.53125 L 1.625 -5.53125 L 1.625 -1.859375 C 1.625 -1.472656 1.703125 -1.179688 1.859375 -0.984375 C 2.023438 -0.796875 2.273438 -0.703125 2.609375 -0.703125 C 2.953125 -0.703125 3.203125 -0.796875 3.359375 -0.984375 C 3.523438 -1.179688 3.609375 -1.472656 3.609375 -1.859375 L 3.609375 -5.53125 L 4.6875 -5.53125 Z M 4.6875 -1.8125 "/></g></g></g><g fill="#000000" fill-opacity="1"><g transform="translate(218.692791, 7.084739)"><g><path d="M 2.234375 -5.640625 C 2.628906 -5.640625 2.96875 -5.582031 3.25 -5.46875 C 3.539062 -5.363281 3.8125 -5.195312 4.0625 -4.96875 L 3.546875 -4.375 C 3.347656 -4.53125 3.144531 -4.644531 2.9375 -4.71875 C 2.738281 -4.800781 2.523438 -4.84375 2.296875 -4.84375 C 2.046875 -4.84375 1.84375 -4.785156 1.6875 -4.671875 C 1.53125 -4.554688 1.453125 -4.394531 1.453125 -4.1875 C 1.453125 -4.039062 1.476562 -3.921875 1.53125 -3.828125 C 1.59375 -3.742188 1.703125 -3.660156 1.859375 -3.578125 C 2.023438 -3.503906 2.265625 -3.414062 2.578125 -3.3125 C 3.128906 -3.144531 3.539062 -2.929688 3.8125 -2.671875 C 4.082031 -2.421875 4.21875 -2.054688 4.21875 -1.578125 C 4.21875 -1.242188 4.132812 -0.945312 3.96875 -0.6875 C 3.800781 -0.4375 3.5625 -0.238281 3.25 -0.09375 C 2.9375 0.0507812 2.5625 0.125 2.125 0.125 C 1.707031 0.125 1.332031 0.0546875 1 -0.078125 C 0.664062 -0.210938 0.378906 -0.398438 0.140625 -0.640625 L 0.6875 -1.25 C 0.894531 -1.0625 1.113281 -0.921875 1.34375 -0.828125 C 1.570312 -0.742188 1.828125 -0.703125 2.109375 -0.703125 C 2.410156 -0.703125 2.65625 -0.769531 2.84375 -0.90625 C 3.03125 -1.050781 3.125 -1.253906 3.125 -1.515625 C 3.125 -1.679688 3.085938 -1.816406 3.015625 -1.921875 C 2.953125 -2.023438 2.84375 -2.113281 2.6875 -2.1875 C 2.539062 -2.269531 2.320312 -2.359375 2.03125 -2.453125 C 1.4375 -2.640625 1.007812 -2.859375 0.75 -3.109375 C 0.488281 -3.367188 0.359375 -3.707031 0.359375 -4.125 C 0.359375 -4.425781 0.4375 -4.691406 0.59375 -4.921875 C 0.757812 -5.148438 0.984375 -5.328125 1.265625 -5.453125 C 1.554688 -5.578125 1.878906 -5.640625 2.234375 -5.640625 Z M 2.234375 -5.640625 "/></g></g></g><g fill="#000000" fill-opacity="1"><g transform="translate(223.844818, 7.084739)"><g><path d="M 1.5 -5.53125 L 1.390625 -1.953125 L 0.53125 -1.953125 L 0.40625 -5.53125 Z M 0.953125 -1.171875 C 1.140625 -1.171875 1.296875 -1.109375 1.421875 -0.984375 C 1.546875 -0.859375 1.609375 -0.707031 1.609375 -0.53125 C 1.609375 -0.351562 1.546875 -0.195312 1.421875 -0.0625 C 1.296875 0.0585938 1.140625 0.125 0.953125 0.125 C 0.773438 0.125 0.625 0.0585938 0.5 -0.0625 C 0.375 -0.195312 0.3125 -0.351562 0.3125 -0.53125 C 0.3125 -0.707031 0.375 -0.859375 0.5 -0.984375 C 0.625 -1.109375 0.773438 -1.171875 0.953125 -1.171875 Z M 0.953125 -1.171875 "/></g></g></g></g></g></svg>
